<svg xmlns="http://www.w3.org/2000/svg" width="1200" height="630" viewBox="0 0 1200 630" role="img" aria-labelledby="title desc">
  <title id="title">Sổ quỹ</title>
  <desc id="desc">Ảnh chia sẻ mạng xã hội cho ứng dụng quản lý thu chi Sổ quỹ.</desc>
  <rect width="1200" height="630" fill="#f4f7f4"/>
  <rect x="86" y="76" width="1028" height="478" rx="24" fill="#ffffff"/>
  <rect x="86" y="76" width="1028" height="478" rx="24" fill="none" stroke="#d6ded8" stroke-width="2"/>
  <rect x="146" y="135" width="210" height="56" rx="10" fill="#0f766e"/>
  <text x="172" y="172" fill="#ffffff" font-family="Arial, sans-serif" font-size="28" font-weight="700">Sổ quỹ</text>
  <text x="146" y="263" fill="#1f2933" font-family="Arial, sans-serif" font-size="58" font-weight="700">Quản lý thu chi rõ ràng</text>
  <text x="146" y="325" fill="#57534e" font-family="Arial, sans-serif" font-size="30">Theo dõi giao dịch, lợi nhuận và báo cáo tài chính</text>
  <rect x="146" y="404" width="250" height="76" rx="14" fill="#ecfdf5"/>
  <text x="170" y="437" fill="#0f766e" font-family="Arial, sans-serif" font-size="20" font-weight="700">Thu tháng</text>
  <text x="170" y="466" fill="#134e4a" font-family="Arial, sans-serif" font-size="28" font-weight="700">+ 128.500.000đ</text>
  <rect x="426" y="404" width="250" height="76" rx="14" fill="#fff7ed"/>
  <text x="450" y="437" fill="#c2410c" font-family="Arial, sans-serif" font-size="20" font-weight="700">Chi tháng</text>
  <text x="450" y="466" fill="#7c2d12" font-family="Arial, sans-serif" font-size="28" font-weight="700">- 84.200.000đ</text>
  <g transform="translate(754 150)">
    <rect width="285" height="330" rx="18" fill="#f8fafc" stroke="#d6ded8" stroke-width="2"/>
    <rect x="35" y="241" width="34" height="54" rx="8" fill="#0f766e"/>
    <rect x="89" y="181" width="34" height="114" rx="8" fill="#c2410c"/>
    <rect x="143" y="123" width="34" height="172" rx="8" fill="#0f766e"/>
    <rect x="197" y="73" width="34" height="222" rx="8" fill="#c2410c"/>
    <path d="M35 74h196" stroke="#d6ded8" stroke-width="2"/>
    <path d="M35 132h196" stroke="#d6ded8" stroke-width="2"/>
    <path d="M35 190h196" stroke="#d6ded8" stroke-width="2"/>
    <path d="M35 248h196" stroke="#d6ded8" stroke-width="2"/>
  </g>
</svg>
